<?xml version="1.0" encoding="UTF-8" standalone="no"?>
<!-- Created with Inkscape (http://www.inkscape.org/) -->

<svg
   xmlns:dc="http://purl.org/dc/elements/1.1/"
   xmlns:cc="http://creativecommons.org/ns#"
   xmlns:rdf="http://www.w3.org/1999/02/22-rdf-syntax-ns#"
   xmlns:svg="http://www.w3.org/2000/svg"
   xmlns="http://www.w3.org/2000/svg"
   xmlns:xlink="http://www.w3.org/1999/xlink"
   xmlns:sodipodi="http://sodipodi.sourceforge.net/DTD/sodipodi-0.dtd"
   xmlns:inkscape="http://www.inkscape.org/namespaces/inkscape"
   width="744.09448819"
   height="1052.3622047"
   id="svg2"
   version="1.1"
   inkscape:version="0.47 r22583"
   sodipodi:docname="schmetterlingen.svg">
  <defs
     id="defs4">
    <marker
       inkscape:stockid="Arrow1Send"
       orient="auto"
       refY="0.0"
       refX="0.0"
       id="Arrow1Send"
       style="overflow:visible;">
      <path
         id="path3752"
         d="M 0.0,0.0 L 5.0,-5.0 L -12.5,0.0 L 5.0,5.0 L 0.0,0.0 z "
         style="fill-rule:evenodd;stroke:#000000;stroke-width:1.0pt;marker-start:none;"
         transform="scale(0.2) rotate(180) translate(6,0)" />
    </marker>
    <marker
       inkscape:stockid="Arrow1Mend"
       orient="auto"
       refY="0.0"
       refX="0.0"
       id="Arrow1Mend"
       style="overflow:visible;">
      <path
         id="path3746"
         d="M 0.0,0.0 L 5.0,-5.0 L -12.5,0.0 L 5.0,5.0 L 0.0,0.0 z "
         style="fill-rule:evenodd;stroke:#000000;stroke-width:1.0pt;marker-start:none;"
         transform="scale(0.4) rotate(180) translate(10,0)" />
    </marker>
    <marker
       inkscape:stockid="Arrow1Lend"
       orient="auto"
       refY="0.0"
       refX="0.0"
       id="Arrow1Lend"
       style="overflow:visible;">
      <path
         id="path3740"
         d="M 0.0,0.0 L 5.0,-5.0 L -12.5,0.0 L 5.0,5.0 L 0.0,0.0 z "
         style="fill-rule:evenodd;stroke:#000000;stroke-width:1.0pt;marker-start:none;"
         transform="scale(0.8) rotate(180) translate(12.5,0)" />
    </marker>
    <linearGradient
       id="linearGradient3780">
      <stop
         id="stop3782"
         offset="0"
         style="stop-color:#e9ddaf;stop-opacity:1;" />
      <stop
         id="stop3784"
         offset="1"
         style="stop-color:#006580;stop-opacity:1;" />
    </linearGradient>
    <linearGradient
       id="linearGradient3760">
      <stop
         style="stop-color:#aa0087;stop-opacity:1;"
         offset="0"
         id="stop3762" />
      <stop
         style="stop-color:#e580ff;stop-opacity:1;"
         offset="1"
         id="stop3764" />
    </linearGradient>
    <inkscape:perspective
       sodipodi:type="inkscape:persp3d"
       inkscape:vp_x="0 : 526.18109 : 1"
       inkscape:vp_y="0 : 1000 : 0"
       inkscape:vp_z="744.09448 : 526.18109 : 1"
       inkscape:persp3d-origin="372.04724 : 350.78739 : 1"
       id="perspective10" />
    <filter
       inkscape:collect="always"
       id="filter3739">
      <feGaussianBlur
         inkscape:collect="always"
         stdDeviation="0.67413603"
         id="feGaussianBlur3741" />
    </filter>
    <filter
       inkscape:collect="always"
       id="filter3751">
      <feGaussianBlur
         inkscape:collect="always"
         stdDeviation="0.69698248"
         id="feGaussianBlur3753" />
    </filter>
    <linearGradient
       inkscape:collect="always"
       xlink:href="#linearGradient3760"
       id="linearGradient3774"
       x1="194.9855"
       y1="367.36218"
       x2="246.18663"
       y2="367.36218"
       gradientUnits="userSpaceOnUse" />
    <linearGradient
       inkscape:collect="always"
       xlink:href="#linearGradient3780"
       id="linearGradient3792"
       x1="243.81337"
       y1="367.36218"
       x2="295.0145"
       y2="367.36218"
       gradientUnits="userSpaceOnUse" />
  </defs>
  <sodipodi:namedview
     id="base"
     pagecolor="#ffffff"
     bordercolor="#666666"
     borderopacity="1.0"
     inkscape:pageopacity="0.0"
     inkscape:pageshadow="2"
     inkscape:zoom="1.979899"
     inkscape:cx="164.1607"
     inkscape:cy="949.50385"
     inkscape:document-units="px"
     inkscape:current-layer="layer1"
     showgrid="true"
     showguides="true"
     inkscape:guide-bbox="true"
     inkscape:window-width="1280"
     inkscape:window-height="773"
     inkscape:window-x="1280"
     inkscape:window-y="0"
     inkscape:window-maximized="1">
    <inkscape:grid
       type="xygrid"
       id="grid2820" />
    <sodipodi:guide
       orientation="1,0"
       position="245,690"
       id="guide3692" />
    <sodipodi:guide
       orientation="0,1"
       position="165,685"
       id="guide3694" />
  </sodipodi:namedview>
  <metadata
     id="metadata7">
    <rdf:RDF>
      <cc:Work
         rdf:about="">
        <dc:format>image/svg+xml</dc:format>
        <dc:type
           rdf:resource="http://purl.org/dc/dcmitype/StillImage" />
        <dc:title></dc:title>
      </cc:Work>
    </rdf:RDF>
  </metadata>
  <g
     inkscape:label="Layer 1"
     inkscape:groupmode="layer"
     id="layer1">
    <rect
       style="fill:none;stroke:none"
       id="rect3796"
       width="110"
       height="110"
       x="190"
       y="312.36218"
       inkscape:export-filename="/home/kearsley/src/flutterby/resources/img/flutterby_icon.png"
       inkscape:export-xdpi="52.360001"
       inkscape:export-ydpi="52.360001" />
    <path
       d="m 245,367.36218 c 20,-5 25,5 40,0 0,10 10.45588,9.99686 10,20 -0.509,11.16875 -20,35 -51.18663,-5.24346 L 245,367.36218 z"
       style="fill:#ffffff;stroke:none;stroke-width:8;stroke-linecap:round;stroke-linejoin:miter;stroke-opacity:1;fill-opacity:0.12156863"
       id="path3725"
       sodipodi:nodetypes="ccscc" />
    <path
       d="m 285,367.36218 c 0,-10 10.45588,-9.99686 10,-20 -0.509,-11.16875 -20,-35 -51.18663,5.24346 L 245,367.36218 m 40,0 c 0,10 10.45588,9.99686 10,20 -0.509,11.16875 -20,35 -51.18663,-5.24346 L 245,367.36218"
       style="fill:url(#linearGradient3792);fill-opacity:1.0;stroke:none"
       id="path3776" />
    <path
       sodipodi:nodetypes="ccscc"
       id="path3729"
       style="fill:#000000;stroke:none;stroke-width:8;stroke-linecap:round;stroke-linejoin:miter;stroke-opacity:1;filter:url(#filter3751);fill-opacity:0.12156863"
       d="m 245,367.36218 c 24.74874,10.10153 40,0 40,0 0,-10 10.45588,-9.99686 10,-20 -0.509,-11.16875 -20,-35 -51.18663,5.24346 L 245,367.36218 z" />
    <path
       sodipodi:nodetypes="ccscc"
       id="path3723"
       style="fill:#ffffff;stroke:none;stroke-width:8;stroke-linecap:round;stroke-linejoin:miter;stroke-opacity:1;fill-opacity:0.12156863"
       d="m 245,367.36218 c 0,0 -16.26142,-8.5863 -40,0 0,10 -10.45588,9.99686 -10,20 0.509,11.16875 20,35 51.18663,-5.24346 L 245,367.36218 z" />
    <path
       id="path3757"
       style="fill:url(#linearGradient3774);stroke:none;stroke-width:8;stroke-linecap:round;stroke-linejoin:miter;stroke-opacity:1;fill-opacity:1.0"
       d="m 205,367.36218 c 0,-10 -10.45588,-9.99686 -10,-20 0.509,-11.16875 20,-35 51.18663,5.24346 L 245,367.36218 m -40,0 c 0,10 -10.45588,9.99686 -10,20 0.509,11.16875 20,35 51.18663,-5.24346 L 245,367.36218" />
    <path
       d="m 245,367.36218 c -20,-5 -25,5 -40,0 0,-10 -10.45588,-9.99686 -10,-20 0.509,-11.16875 20,-35 51.18663,5.24346 L 245,367.36218 z"
       style="fill:#000000;stroke:none;filter:url(#filter3739);fill-opacity:0.12156863"
       id="path3727"
       sodipodi:nodetypes="ccscc" />
    <path
       d="m 205,367.36218 c 0,10 -10.45588,9.99686 -10,20 0.509,11.16875 20,35 51.18663,-5.24346 L 245,367.36218"
       style="fill:none;stroke:#000000;stroke-width:6;stroke-linecap:round;stroke-linejoin:miter;stroke-opacity:1"
       id="path3710"
       sodipodi:nodetypes="csc" />
    <path
       sodipodi:nodetypes="csc"
       id="path3717"
       style="fill:none;stroke:#000000;stroke-width:6;stroke-linecap:round;stroke-linejoin:miter;stroke-opacity:1"
       d="m 285,367.36218 c 0,10 10.45588,9.99686 10,20 -0.509,11.16875 -20,35 -51.18663,-5.24346 L 245,367.36218" />
    <path
       style="fill:none;stroke:#000000;stroke-width:6;stroke-linecap:butt;stroke-linejoin:miter;stroke-opacity:1"
       d="m 225,382.36218 15,25"
       id="path3702" />
    <path
       id="path3704"
       d="m 265,382.36218 -15,25"
       style="fill:none;stroke:#000000;stroke-width:6;stroke-linecap:butt;stroke-linejoin:miter;stroke-opacity:1" />
    <path
       sodipodi:nodetypes="csc"
       id="path3719"
       style="fill:none;stroke:#000000;stroke-width:6;stroke-linecap:round;stroke-linejoin:miter;stroke-opacity:1"
       d="m 205,367.36218 c 0,-10 -10.45588,-9.99686 -10,-20 0.509,-11.16875 20,-35 51.18663,5.24346 L 245,367.36218" />
    <path
       d="m 285,367.36218 c 0,-10 10.45588,-9.99686 10,-20 -0.509,-11.16875 -20,-35 -51.18663,5.24346 L 245,367.36218"
       style="fill:none;stroke:#000000;stroke-width:6;stroke-linecap:round;stroke-linejoin:miter;stroke-opacity:1"
       id="path3721"
       sodipodi:nodetypes="csc" />
    <path
       style="fill:#000000;stroke:#000000;stroke-width:6;stroke-linecap:butt;stroke-linejoin:round;stroke-opacity:1;fill-opacity:1.0"
       d="m 245,337.36218 c 0,0 -5,20.00001 -5,30 0,10.00001 5,35 5,35 0,0 5,-24.99999 5,-35 0,-9.99999 -5,-30 -5,-30 z"
       id="path3678"
       sodipodi:nodetypes="ccccc" />
    <path
       style="fill:none;stroke:#000000;stroke-width:4;stroke-linecap:round;stroke-linejoin:round;stroke-opacity:1"
       d="m 235,322.36218 10,35 10,-35"
       id="path3794" />
    <rect
       style="fill:#112b00;stroke:#000000;stroke-width:10;stroke-linejoin:round"
       id="rect2948"
       width="330"
       height="220"
       x="0"
       y="2.3621953"
       inkscape:export-filename="/home/kearsley/src/flutterby/src/flutterby/resources/img/retweet.png"
       inkscape:export-xdpi="6.3499999"
       inkscape:export-ydpi="6.3499999" />
    <path
       style="fill:none;stroke:#f4eed7;stroke-width:6;stroke-linecap:round;stroke-linejoin:round;stroke-opacity:1;stroke-miterlimit:4;stroke-dasharray:none;marker-end:none"
       d="m 105,117.36218 -50,50 100,0"
       id="path3726"
       sodipodi:nodetypes="ccc" />
    <path
       style="fill:none;stroke:#f4eed7;stroke-width:6;stroke-linecap:round;stroke-linejoin:round;stroke-opacity:1;stroke-miterlimit:4;stroke-dasharray:none;marker-end:none"
       d="M 215,107.36218 165,57.362183 120,102.36218"
       id="path3728"
       sodipodi:nodetypes="ccc" />
    <path
       style="fill:none;stroke:#f4eed7;stroke-width:6;stroke-linecap:round;stroke-linejoin:round;stroke-opacity:1;marker-end:none;stroke-miterlimit:4;stroke-dasharray:none"
       d="m 175,167.36218 100,0 -45,-45"
       id="path3732"
       sodipodi:nodetypes="ccc" />
    <path
       style="fill:#f4eed7;stroke:#f4eed7;stroke-width:4;stroke-linecap:butt;stroke-linejoin:round;stroke-opacity:1"
       d="m 150,167.36218 -10,-15 20,15 -20,15 10,-15 z"
       id="path5308"
       sodipodi:nodetypes="ccccc" />
    <use
       x="0"
       y="0"
       xlink:href="#path5308"
       id="use5310"
       transform="matrix(-0.6972968,0.71678251,-0.71678251,-0.6972968,349.5568,106.54592)"
       width="744.09448"
       height="1052.3622"
       inkscape:transform-center-x="-13.743435"
       inkscape:transform-center-y="-13.831115" />
    <use
       inkscape:transform-center-y="13.831115"
       inkscape:transform-center-x="-13.743435"
       height="1052.3622"
       width="744.09448"
       transform="matrix(-0.6972968,-0.71678251,-0.71678251,0.6972968,456.8321,116.47007)"
       id="use5312"
       xlink:href="#path5308"
       y="0"
       x="0" />
  </g>
</svg>
