<?xml version="1.0" encoding="UTF-8" standalone="no"?>
<!-- Created with Inkscape (http://www.inkscape.org/) -->

<svg
   xmlns:dc="http://purl.org/dc/elements/1.1/"
   xmlns:cc="http://creativecommons.org/ns#"
   xmlns:rdf="http://www.w3.org/1999/02/22-rdf-syntax-ns#"
   xmlns:svg="http://www.w3.org/2000/svg"
   xmlns="http://www.w3.org/2000/svg"
   xmlns:xlink="http://www.w3.org/1999/xlink"
   xmlns:sodipodi="http://sodipodi.sourceforge.net/DTD/sodipodi-0.dtd"
   xmlns:inkscape="http://www.inkscape.org/namespaces/inkscape"
   width="744.09448819"
   height="1052.3622047"
   id="svg2"
   version="1.1"
   inkscape:version="0.47 r22583"
   sodipodi:docname="schmetterlingen.svg">
  <defs
     id="defs4">
    <marker
       inkscape:stockid="Arrow1Send"
       orient="auto"
       refY="0.0"
       refX="0.0"
       id="Arrow1Send"
       style="overflow:visible;">
      <path
         id="path3752"
         d="M 0.0,0.0 L 5.0,-5.0 L -12.5,0.0 L 5.0,5.0 L 0.0,0.0 z "
         style="fill-rule:evenodd;stroke:#000000;stroke-width:1.0pt;marker-start:none;"
         transform="scale(0.2) rotate(180) translate(6,0)" />
    </marker>
    <marker
       inkscape:stockid="Arrow1Mend"
       orient="auto"
       refY="0.0"
       refX="0.0"
       id="Arrow1Mend"
       style="overflow:visible;">
      <path
         id="path3746"
         d="M 0.0,0.0 L 5.0,-5.0 L -12.5,0.0 L 5.0,5.0 L 0.0,0.0 z "
         style="fill-rule:evenodd;stroke:#000000;stroke-width:1.0pt;marker-start:none;"
         transform="scale(0.4) rotate(180) translate(10,0)" />
    </marker>
    <marker
       inkscape:stockid="Arrow1Lend"
       orient="auto"
       refY="0.0"
       refX="0.0"
       id="Arrow1Lend"
       style="overflow:visible;">
      <path
         id="path3740"
         d="M 0.0,0.0 L 5.0,-5.0 L -12.5,0.0 L 5.0,5.0 L 0.0,0.0 z "
         style="fill-rule:evenodd;stroke:#000000;stroke-width:1.0pt;marker-start:none;"
         transform="scale(0.8) rotate(180) translate(12.5,0)" />
    </marker>
    <linearGradient
       id="linearGradient3780">
      <stop
         id="stop3782"
         offset="0"
         style="stop-color:#e9ddaf;stop-opacity:1;" />
      <stop
         id="stop3784"
         offset="1"
         style="stop-color:#006580;stop-opacity:1;" />
    </linearGradient>
    <linearGradient
       id="linearGradient3760">
      <stop
         style="stop-color:#aa0087;stop-opacity:1;"
         offset="0"
         id="stop3762" />
      <stop
         style="stop-color:#e580ff;stop-opacity:1;"
         offset="1"
         id="stop3764" />
    </linearGradient>
    <inkscape:perspective
       sodipodi:type="inkscape:persp3d"
       inkscape:vp_x="0 : 526.18109 : 1"
       inkscape:vp_y="0 : 1000 : 0"
       inkscape:vp_z="744.09448 : 526.18109 : 1"
       inkscape:persp3d-origin="372.04724 : 350.78739 : 1"
       id="perspective10" />
    <filter
       inkscape:collect="always"
       id="filter3739">
      <feGaussianBlur
         inkscape:collect="always"
         stdDeviation="0.67413603"
         id="feGaussianBlur3741" />
    </filter>
    <filter
       inkscape:collect="always"
       id="filter3751">
      <feGaussianBlur
         inkscape:collect="always"
         stdDeviation="0.69698248"
         id="feGaussianBlur3753" />
    </filter>
    <linearGradient
       inkscape:collect="always"
       xlink:href="#linearGradient3760"
       id="linearGradient3774"
       x1="194.9855"
       y1="367.36218"
       x2="246.18663"
       y2="367.36218"
       gradientUnits="userSpaceOnUse" />
    <linearGradient
       inkscape:collect="always"
       xlink:href="#linearGradient3780"
       id="linearGradient3792"
       x1="243.81337"
       y1="367.36218"
       x2="295.0145"
       y2="367.36218"
       gradientUnits="userSpaceOnUse" />
  </defs>
  <sodipodi:namedview
     id="base"
     pagecolor="#ffffff"
     bordercolor="#666666"
     borderopacity="1.0"
     inkscape:pageopacity="0.0"
     inkscape:pageshadow="2"
     inkscape:zoom="1.979899"
     inkscape:cx="155.49161"
     inkscape:cy="929.3008"
     inkscape:document-units="px"
     inkscape:current-layer="layer1"
     showgrid="true"
     showguides="true"
     inkscape:guide-bbox="true"
     inkscape:window-width="1280"
     inkscape:window-height="773"
     inkscape:window-x="1280"
     inkscape:window-y="0"
     inkscape:window-maximized="1">
    <inkscape:grid
       type="xygrid"
       id="grid2820" />
    <sodipodi:guide
       orientation="1,0"
       position="220,895"
       id="guide3692" />
    <sodipodi:guide
       orientation="0,1"
       position="165,685"
       id="guide3694" />
    <sodipodi:guide
       orientation="1,0"
       position="195,890"
       id="guide5314" />
    <sodipodi:guide
       orientation="1,0"
       position="0,905"
       id="guide5316" />
    <sodipodi:guide
       orientation="0,1"
       position="140,1040"
       id="guide5320" />
    <sodipodi:guide
       orientation="0,1"
       position="-25,820"
       id="guide5322" />
    <sodipodi:guide
       orientation="0,1"
       position="145,1005"
       id="guide5326" />
    <sodipodi:guide
       orientation="1,0"
       position="35,890"
       id="guide5328" />
    <sodipodi:guide
       orientation="1,0"
       position="110,965"
       id="guide5330" />
    <sodipodi:guide
       orientation="0,1"
       position="105,845"
       id="guide5332" />
    <sodipodi:guide
       orientation="0,1"
       position="25,930"
       id="guide5342" />
    <sodipodi:guide
       orientation="1,0"
       position="70,1020"
       id="guide5916" />
    <sodipodi:guide
       orientation="0,1"
       position="90,965"
       id="guide5918" />
  </sodipodi:namedview>
  <metadata
     id="metadata7">
    <rdf:RDF>
      <cc:Work
         rdf:about="">
        <dc:format>image/svg+xml</dc:format>
        <dc:type
           rdf:resource="http://purl.org/dc/dcmitype/StillImage" />
        <dc:title></dc:title>
      </cc:Work>
    </rdf:RDF>
  </metadata>
  <g
     inkscape:label="Layer 1"
     inkscape:groupmode="layer"
     id="layer1">
    <rect
       style="fill:none;stroke:none"
       id="rect3796"
       width="110"
       height="110"
       x="190"
       y="312.36218"
       inkscape:export-filename="/home/kearsley/src/flutterby/resources/img/flutterby_icon.png"
       inkscape:export-xdpi="52.360001"
       inkscape:export-ydpi="52.360001" />
    <path
       d="m 245,367.36218 c 20,-5 25,5 40,0 0,10 10.45588,9.99686 10,20 -0.509,11.16875 -20,35 -51.18663,-5.24346 L 245,367.36218 z"
       style="fill:#ffffff;stroke:none;stroke-width:8;stroke-linecap:round;stroke-linejoin:miter;stroke-opacity:1;fill-opacity:0.12156863"
       id="path3725"
       sodipodi:nodetypes="ccscc" />
    <path
       d="m 285,367.36218 c 0,-10 10.45588,-9.99686 10,-20 -0.509,-11.16875 -20,-35 -51.18663,5.24346 L 245,367.36218 m 40,0 c 0,10 10.45588,9.99686 10,20 -0.509,11.16875 -20,35 -51.18663,-5.24346 L 245,367.36218"
       style="fill:url(#linearGradient3792);fill-opacity:1.0;stroke:none"
       id="path3776" />
    <path
       sodipodi:nodetypes="ccscc"
       id="path3729"
       style="fill:#000000;stroke:none;stroke-width:8;stroke-linecap:round;stroke-linejoin:miter;stroke-opacity:1;filter:url(#filter3751);fill-opacity:0.12156863"
       d="m 245,367.36218 c 24.74874,10.10153 40,0 40,0 0,-10 10.45588,-9.99686 10,-20 -0.509,-11.16875 -20,-35 -51.18663,5.24346 L 245,367.36218 z" />
    <path
       sodipodi:nodetypes="ccscc"
       id="path3723"
       style="fill:#ffffff;stroke:none;stroke-width:8;stroke-linecap:round;stroke-linejoin:miter;stroke-opacity:1;fill-opacity:0.12156863"
       d="m 245,367.36218 c 0,0 -16.26142,-8.5863 -40,0 0,10 -10.45588,9.99686 -10,20 0.509,11.16875 20,35 51.18663,-5.24346 L 245,367.36218 z" />
    <path
       id="path3757"
       style="fill:url(#linearGradient3774);stroke:none;stroke-width:8;stroke-linecap:round;stroke-linejoin:miter;stroke-opacity:1;fill-opacity:1.0"
       d="m 205,367.36218 c 0,-10 -10.45588,-9.99686 -10,-20 0.509,-11.16875 20,-35 51.18663,5.24346 L 245,367.36218 m -40,0 c 0,10 -10.45588,9.99686 -10,20 0.509,11.16875 20,35 51.18663,-5.24346 L 245,367.36218" />
    <path
       d="m 245,367.36218 c -20,-5 -25,5 -40,0 0,-10 -10.45588,-9.99686 -10,-20 0.509,-11.16875 20,-35 51.18663,5.24346 L 245,367.36218 z"
       style="fill:#000000;stroke:none;filter:url(#filter3739);fill-opacity:0.12156863"
       id="path3727"
       sodipodi:nodetypes="ccscc" />
    <path
       d="m 205,367.36218 c 0,10 -10.45588,9.99686 -10,20 0.509,11.16875 20,35 51.18663,-5.24346 L 245,367.36218"
       style="fill:none;stroke:#000000;stroke-width:6;stroke-linecap:round;stroke-linejoin:miter;stroke-opacity:1"
       id="path3710"
       sodipodi:nodetypes="csc" />
    <path
       sodipodi:nodetypes="csc"
       id="path3717"
       style="fill:none;stroke:#000000;stroke-width:6;stroke-linecap:round;stroke-linejoin:miter;stroke-opacity:1"
       d="m 285,367.36218 c 0,10 10.45588,9.99686 10,20 -0.509,11.16875 -20,35 -51.18663,-5.24346 L 245,367.36218" />
    <path
       style="fill:none;stroke:#000000;stroke-width:6;stroke-linecap:butt;stroke-linejoin:miter;stroke-opacity:1"
       d="m 225,382.36218 15,25"
       id="path3702" />
    <path
       id="path3704"
       d="m 265,382.36218 -15,25"
       style="fill:none;stroke:#000000;stroke-width:6;stroke-linecap:butt;stroke-linejoin:miter;stroke-opacity:1" />
    <path
       sodipodi:nodetypes="csc"
       id="path3719"
       style="fill:none;stroke:#000000;stroke-width:6;stroke-linecap:round;stroke-linejoin:miter;stroke-opacity:1"
       d="m 205,367.36218 c 0,-10 -10.45588,-9.99686 -10,-20 0.509,-11.16875 20,-35 51.18663,5.24346 L 245,367.36218" />
    <path
       d="m 285,367.36218 c 0,-10 10.45588,-9.99686 10,-20 -0.509,-11.16875 -20,-35 -51.18663,5.24346 L 245,367.36218"
       style="fill:none;stroke:#000000;stroke-width:6;stroke-linecap:round;stroke-linejoin:miter;stroke-opacity:1"
       id="path3721"
       sodipodi:nodetypes="csc" />
    <path
       style="fill:#000000;stroke:#000000;stroke-width:6;stroke-linecap:butt;stroke-linejoin:round;stroke-opacity:1;fill-opacity:1.0"
       d="m 245,337.36218 c 0,0 -5,20.00001 -5,30 0,10.00001 5,35 5,35 0,0 5,-24.99999 5,-35 0,-9.99999 -5,-30 -5,-30 z"
       id="path3678"
       sodipodi:nodetypes="ccccc" />
    <path
       style="fill:none;stroke:#000000;stroke-width:4;stroke-linecap:round;stroke-linejoin:round;stroke-opacity:1"
       d="m 235,322.36218 10,35 10,-35"
       id="path3794" />
    <path
       sodipodi:type="arc"
       style="fill:#338000;fill-opacity:1;stroke:#338000;stroke-width:16;stroke-linejoin:round;stroke-miterlimit:4;stroke-dasharray:none"
       id="path5340"
       sodipodi:cx="110"
       sodipodi:cy="122.36218"
       sodipodi:rx="110"
       sodipodi:ry="110"
       d="m 220,122.36218 a 110,110 0 1 1 -220,0 110,110 0 1 1 220,0 z"
       inkscape:export-xdpi="6.21"
       inkscape:export-ydpi="6.21"
       inkscape:export-filename="/home/kearsley/src/flutterby/src/flutterby/resources/img/retweet.png" />
    <g
       id="g5922"
       transform="matrix(1.3571429,0,0,1.3571429,-8.9285727,-18.700782)">
      <path
         sodipodi:nodetypes="cc"
         id="path5344"
         d="m 80,52.362183 c -21.842106,7.368421 -40,10 -40,69.999997"
         style="fill:none;stroke:#e9ddaf;stroke-width:16;stroke-linecap:round;stroke-linejoin:miter;stroke-miterlimit:4;stroke-opacity:1;stroke-dasharray:none;marker-end:none" />
      <path
         sodipodi:nodetypes="cccc"
         id="path5920"
         d="m 55,107.36218 -15,20 -15,-20 30,0 z"
         style="fill:none;stroke:#e9ddaf;stroke-width:10;stroke-linecap:butt;stroke-linejoin:round;stroke-miterlimit:4;stroke-opacity:1;stroke-dasharray:none" />
    </g>
    <use
       x="0"
       y="0"
       xlink:href="#g5922"
       id="use5926"
       transform="matrix(-1,0,0,-1,225,244.72436)"
       width="744.09448"
       height="1052.3622" />
  </g>
</svg>
